{
    "asset" : {
        "generator" : "Khronos glTF Blender I/O v1.5.17",
        "version" : "2.0"
    },
    "scene" : 0,
    "scenes" : [
        {
            "name" : "Scene",
            "nodes" : [
                40
            ]
        }
    ],
    "nodes" : [
        {
            "mesh" : 0,
            "name" : "Cube"
        },
        {
            "name" : "spine.006",
            "rotation" : [
                0.07584553211927414,
                2.3773195323428808e-07,
                -1.8082991104506618e-08,
                0.997119665145874
            ],
            "scale" : [
                1,
                0.9999998211860657,
                0.9999999403953552
            ],
            "translation" : [
                2.5164830478761543e-14,
                0.03546345606446266,
                4.901010086655333e-08
            ]
        },
        {
            "children" : [
                1
            ],
            "name" : "spine.005",
            "rotation" : [
                -0.0097306277602911,
                -3.5761095773523266e-07,
                1.1599825544550413e-09,
                0.9999526739120483
            ],
            "scale" : [
                1,
                1,
                1.0000001192092896
            ],
            "translation" : [
                -1.5699800146588188e-15,
                0.03822687268257141,
                2.0031889036431494e-08
            ]
        },
        {
            "children" : [
                2
            ],
            "name" : "spine.004",
            "rotation" : [
                -0.019919849932193756,
                3.5755689964389603e-07,
                2.3746495880772045e-09,
                0.9998015761375427
            ],
            "scale" : [
                1,
                0.9999999403953552,
                1
            ],
            "translation" : [
                2.4806784569759467e-14,
                0.16982658207416534,
                4.179415924454588e-08
            ]
        },
        {
            "name" : "fingertip.L",
            "rotation" : [
                0.007103501819074154,
                -0.013662162236869335,
                -0.12734851241111755,
                0.991738498210907
            ],
            "scale" : [
                1,
                1,
                1.0000001192092896
            ],
            "translation" : [
                1.565206275699893e-08,
                0.03369656950235367,
                -3.247281199492136e-08
            ]
        },
        {
            "children" : [
                4
            ],
            "name" : "finger.L",
            "rotation" : [
                0.011413156986236572,
                0.0035326178185641766,
                -0.030170340090990067,
                0.9994733929634094
            ],
            "scale" : [
                0.9999999403953552,
                1.0000001192092896,
                1
            ],
            "translation" : [
                0.0005951332277618349,
                0.07440347224473953,
                0.0009626855025999248
            ]
        },
        {
            "name" : "thumbTip.L",
            "rotation" : [
                -0.09761150926351547,
                -0.0044796341098845005,
                0.0022745290771126747,
                0.9952119588851929
            ],
            "scale" : [
                1,
                0.9999998807907104,
                1
            ],
            "translation" : [
                -4.1607313150393566e-09,
                0.029548723250627518,
                6.638927629865066e-09
            ]
        },
        {
            "children" : [
                6
            ],
            "name" : "thumb.L",
            "rotation" : [
                -0.2006915956735611,
                -0.07420385628938675,
                -0.05403933301568031,
                0.9753443002700806
            ],
            "scale" : [
                1.0000001192092896,
                0.9999998807907104,
                1
            ],
            "translation" : [
                2.176267521747377e-08,
                0.019407620653510094,
                -3.7382381634643025e-09
            ]
        },
        {
            "children" : [
                7
            ],
            "name" : "hand.L.003",
            "rotation" : [
                0.3563944399356842,
                0.10520126670598984,
                -0.054122280329465866,
                0.9268152713775635
            ],
            "scale" : [
                0.9999997615814209,
                0.9999999403953552,
                0.9999999403953552
            ],
            "translation" : [
                0.001622954965569079,
                0.019750308245420456,
                0.03279408439993858
            ]
        },
        {
            "children" : [
                5,
                8
            ],
            "name" : "hand.L",
            "rotation" : [
                -0.03989965096116066,
                -0.021191615611314774,
                -0.011524717323482037,
                0.9989125728607178
            ],
            "scale" : [
                1,
                0.9999998211860657,
                1
            ],
            "translation" : [
                1.2689270079135895e-08,
                0.26042619347572327,
                1.30385160446167e-08
            ]
        },
        {
            "children" : [
                9
            ],
            "name" : "forearm.L",
            "rotation" : [
                0.16755446791648865,
                0.16226893663406372,
                0.03200818970799446,
                0.9718897938728333
            ],
            "scale" : [
                0.9999999403953552,
                0.9999999403953552,
                0.9999998211860657
            ],
            "translation" : [
                2.3718449426723964e-08,
                0.2754501402378082,
                4.740199344155371e-10
            ]
        },
        {
            "children" : [
                10
            ],
            "name" : "upper_arm.L",
            "rotation" : [
                -0.3677520155906677,
                0.6329799890518188,
                -0.475428968667984,
                0.48791611194610596
            ],
            "scale" : [
                1,
                1.0000001192092896,
                1
            ],
            "translation" : [
                0.006649260874837637,
                0.1360577940940857,
                0.0025570509023964405
            ]
        },
        {
            "children" : [
                11
            ],
            "name" : "shoulder.L",
            "rotation" : [
                -0.7182543277740479,
                -0.37433966994285583,
                -0.3384689688682556,
                0.47897738218307495
            ],
            "scale" : [
                1,
                1.0000001192092896,
                1.0000001192092896
            ],
            "translation" : [
                0.01669781655073166,
                0.15112856030464172,
                0.047124627977609634
            ]
        },
        {
            "name" : "fingertip.R",
            "rotation" : [
                0.007103485055267811,
                0.013662152923643589,
                0.1273484230041504,
                0.991738498210907
            ],
            "scale" : [
                1.0000001192092896,
                1.0000001192092896,
                1
            ],
            "translation" : [
                8.053088862425284e-09,
                0.03369647637009621,
                2.348830108189759e-08
            ]
        },
        {
            "children" : [
                13
            ],
            "name" : "finger.R",
            "rotation" : [
                0.01141313649713993,
                -0.003532630391418934,
                0.030170325189828873,
                0.9994733929634094
            ],
            "scale" : [
                1,
                1.0000001192092896,
                1
            ],
            "translation" : [
                -0.0005950653576292098,
                0.07440336793661118,
                0.0009627016843296587
            ]
        },
        {
            "name" : "thumbTip.R",
            "rotation" : [
                -0.09761147946119308,
                0.0044796159490942955,
                -0.002274522092193365,
                0.9952119588851929
            ],
            "scale" : [
                0.9999999403953552,
                0.9999998807907104,
                0.9999998807907104
            ],
            "translation" : [
                -1.0243795145470358e-08,
                0.029548536986112595,
                1.1302117464140338e-08
            ]
        },
        {
            "children" : [
                15
            ],
            "name" : "thumb.R",
            "rotation" : [
                -0.20069174468517303,
                0.07420384883880615,
                0.05403929948806763,
                0.9753442406654358
            ],
            "scale" : [
                1.000000238418579,
                1.0000001192092896,
                1.0000001192092896
            ],
            "translation" : [
                1.5536458786158391e-09,
                0.0194074846804142,
                5.6258251390772784e-08
            ]
        },
        {
            "children" : [
                16
            ],
            "name" : "hand.R.003",
            "rotation" : [
                0.3563944697380066,
                -0.10520125180482864,
                0.05412229895591736,
                0.9268152713775635
            ],
            "scale" : [
                0.9999998807907104,
                0.9999999403953552,
                0.9999999403953552
            ],
            "translation" : [
                -0.0016229074681177735,
                0.01975015550851822,
                0.03279408439993858
            ]
        },
        {
            "children" : [
                14,
                17
            ],
            "name" : "hand.R",
            "rotation" : [
                -0.039899617433547974,
                0.02119169384241104,
                0.011524719186127186,
                0.998912513256073
            ],
            "scale" : [
                0.9999999403953552,
                0.9999998807907104,
                0.9999998807907104
            ],
            "translation" : [
                1.765488555349748e-08,
                0.2604261338710785,
                1.9623279001734772e-08
            ]
        },
        {
            "children" : [
                18
            ],
            "name" : "forearm.R",
            "rotation" : [
                0.1508195549249649,
                -0.16455574333667755,
                -0.04123425483703613,
                0.9738966226577759
            ],
            "scale" : [
                1.0000001192092896,
                1,
                1
            ],
            "translation" : [
                2.2635088470224218e-08,
                0.27866417169570923,
                -4.174128420686429e-08
            ]
        },
        {
            "children" : [
                19
            ],
            "name" : "upper_arm.R",
            "rotation" : [
                -0.3677869141101837,
                -0.6213226318359375,
                0.49087005853652954,
                0.4875834286212921
            ],
            "scale" : [
                1,
                0.9999998807907104,
                0.9999999403953552
            ],
            "translation" : [
                -0.0001693888334557414,
                0.14349603652954102,
                0.007844315841794014
            ]
        },
        {
            "children" : [
                20
            ],
            "name" : "shoulder.R",
            "rotation" : [
                -0.7182541489601135,
                0.3743399381637573,
                0.33846932649612427,
                0.4789772033691406
            ],
            "scale" : [
                1.0000001192092896,
                1.000000238418579,
                1.0000001192092896
            ],
            "translation" : [
                -0.01669776812195778,
                0.15112856030464172,
                0.04712463915348053
            ]
        },
        {
            "children" : [
                3,
                12,
                21
            ],
            "name" : "spine.003",
            "rotation" : [
                0.2830263078212738,
                -3.430052117892046e-07,
                -3.373937573769581e-08,
                0.9591121673583984
            ],
            "translation" : [
                -1.512917226123133e-14,
                0.12068424373865128,
                1.1209917261112423e-07
            ]
        },
        {
            "children" : [
                22
            ],
            "name" : "spine.002",
            "rotation" : [
                -0.1412576138973236,
                2.360280149105165e-07,
                1.973783786966051e-14,
                0.9899728894233704
            ],
            "translation" : [
                3.0391528912594495e-16,
                0.08416768163442612,
                -2.675034238563967e-08
            ]
        },
        {
            "children" : [
                23
            ],
            "name" : "spine.001",
            "rotation" : [
                -0.19094376266002655,
                -1.6382231251554913e-06,
                -2.731471795414109e-07,
                0.9816009998321533
            ],
            "translation" : [
                2.3533975264974742e-14,
                0.13881957530975342,
                3.525443403873396e-08
            ]
        },
        {
            "name" : "shin.L",
            "rotation" : [
                0.07933320105075836,
                -0.0029314265120774508,
                -0.0006517086294479668,
                0.9968436360359192
            ],
            "scale" : [
                0.9999999403953552,
                1,
                1.000000238418579
            ],
            "translation" : [
                -1.9883325208525093e-08,
                0.48903828859329224,
                -1.6435148353366458e-08
            ]
        },
        {
            "children" : [
                25
            ],
            "name" : "thigh.L",
            "rotation" : [
                0.9793210625648499,
                0.05214647203683853,
                -0.009244999848306179,
                0.19525761902332306
            ],
            "scale" : [
                0.9999995231628418,
                0.9999997019767761,
                0.9999960064888
            ],
            "translation" : [
                0.0894196406006813,
                0.043251484632492065,
                0.053466521203517914
            ]
        },
        {
            "name" : "shin.R",
            "rotation" : [
                0.0793357640504837,
                0.002931457245722413,
                0.00065172731410712,
                0.9968435168266296
            ],
            "scale" : [
                1,
                0.9999998807907104,
                1.000000238418579
            ],
            "translation" : [
                1.3168165224897166e-08,
                0.489038348197937,
                -1.4014840843401544e-08
            ]
        },
        {
            "children" : [
                27
            ],
            "name" : "thigh.R",
            "rotation" : [
                0.9793208241462708,
                -0.052147071808576584,
                0.009248055517673492,
                0.19525869190692902
            ],
            "scale" : [
                0.9999997615814209,
                1,
                0.9999968409538269
            ],
            "translation" : [
                -0.08941999822854996,
                0.043251488357782364,
                0.05346596986055374
            ]
        },
        {
            "children" : [
                24,
                26,
                28
            ],
            "name" : "spine",
            "rotation" : [
                0.1846199631690979,
                1.5230807548505254e-06,
                2.8610938329620694e-07,
                0.9828100204467773
            ],
            "scale" : [
                1,
                0.9999999403953552,
                0.9999999403953552
            ],
            "translation" : [
                2.0361702596315468e-17,
                1.0131813287734985,
                -0.09307179600000381
            ]
        },
        {
            "name" : "toe.L",
            "rotation" : [
                -0.017686938866972923,
                0.9284539222717285,
                -0.2557297646999359,
                0.26881730556488037
            ],
            "scale" : [
                1,
                0.9999997615814209,
                1
            ],
            "translation" : [
                -1.5751300708188865e-08,
                0.14757056534290314,
                2.910378604781272e-09
            ]
        },
        {
            "children" : [
                30
            ],
            "name" : "foot.L",
            "rotation" : [
                0.26943275332450867,
                0.12416458874940872,
                0.007427207659929991,
                0.9549523591995239
            ],
            "scale" : [
                1.0000001192092896,
                0.9999999403953552,
                1.000000238418579
            ],
            "translation" : [
                -0.012733271345496178,
                0.023319076746702194,
                -0.08887184411287308
            ]
        },
        {
            "name" : "legIK.L",
            "rotation" : [
                -0.9888476133346558,
                -0.07518400251865387,
                0.1273079365491867,
                0.017903311178088188
            ],
            "scale" : [
                1.0000005960464478,
                0.9999999403953552,
                1.0000001192092896
            ],
            "translation" : [
                -0.012733425945043564,
                0.02331940457224846,
                -0.08887186646461487
            ]
        },
        {
            "children" : [
                31,
                32
            ],
            "name" : "footctrl.L",
            "rotation" : [
                0.7036819458007812,
                0.008616088889539242,
                -0.09796326607465744,
                0.7036765813827515
            ],
            "scale" : [
                0.9999925494194031,
                0.9999997019767761,
                1
            ],
            "translation" : [
                0.18776188790798187,
                0.0030455670785158873,
                -0.1037573516368866
            ]
        },
        {
            "name" : "legPoleTarget.L",
            "rotation" : [
                0.7062740921974182,
                0.03430566564202309,
                0.03430566564202309,
                0.7062740921974182
            ],
            "scale" : [
                1.0000001192092896,
                0.9999999403953552,
                1.0000001192092896
            ],
            "translation" : [
                0.14149263501167297,
                0.5479455590248108,
                1.4734419584274292
            ]
        },
        {
            "name" : "toe.R",
            "rotation" : [
                -0.017686938866972923,
                -0.9284539222717285,
                0.2557297646999359,
                0.26881730556488037
            ],
            "scale" : [
                1,
                0.9999997615814209,
                1
            ],
            "translation" : [
                1.6530975699424744e-08,
                0.14757056534290314,
                6.51925802230835e-09
            ]
        },
        {
            "children" : [
                35
            ],
            "name" : "foot.R",
            "rotation" : [
                0.26943275332450867,
                -0.12416458874940872,
                -0.007427207659929991,
                0.9549523591995239
            ],
            "scale" : [
                1.0000001192092896,
                0.9999999403953552,
                1.000000238418579
            ],
            "translation" : [
                0.012733301147818565,
                0.023319069296121597,
                -0.08887184411287308
            ]
        },
        {
            "name" : "legIK.R",
            "rotation" : [
                -0.9888476133346558,
                0.07518400251865387,
                -0.1273079365491867,
                0.017903311178088188
            ],
            "scale" : [
                1.0000005960464478,
                0.9999999403953552,
                1.0000001192092896
            ],
            "translation" : [
                0.012733425945043564,
                0.02331940457224846,
                -0.08887186646461487
            ]
        },
        {
            "children" : [
                36,
                37
            ],
            "name" : "footctrl.R",
            "rotation" : [
                0.7036819458007812,
                -0.008616088889539242,
                0.09796326607465744,
                0.7036765813827515
            ],
            "scale" : [
                0.9999925494194031,
                0.9999997019767761,
                1
            ],
            "translation" : [
                -0.18776188790798187,
                0.0030455670785158873,
                -0.1037573516368866
            ]
        },
        {
            "name" : "legPoleTarget.R",
            "rotation" : [
                0.7062740921974182,
                -0.03430566564202309,
                -0.03430566564202309,
                0.7062740921974182
            ],
            "scale" : [
                1.0000001192092896,
                0.9999999403953552,
                1.0000001192092896
            ],
            "translation" : [
                -0.14149263501167297,
                0.5479455590248108,
                1.4734419584274292
            ]
        },
        {
            "children" : [
                0,
                29,
                33,
                34,
                38,
                39
            ],
            "name" : "metarig"
        }
    ],
    "meshes" : [
        {
            "name" : "TerrainCollider",
            "primitives" : [
                {
                    "attributes" : {
                        "POSITION" : 0,
                        "NORMAL" : 1,
                        "TEXCOORD_0" : 2
                    },
                    "indices" : 3
                }
            ]
        }
    ],
    "accessors" : [
        {
            "bufferView" : 0,
            "componentType" : 5126,
            "count" : 1704,
            "max" : [
                0.2616003751754761,
                1.7589823007583618,
                0.13343395292758942
            ],
            "min" : [
                -0.2616003453731537,
                0.0003780967672355473,
                -0.1489950269460678
            ],
            "type" : "VEC3"
        },
        {
            "bufferView" : 1,
            "componentType" : 5126,
            "count" : 1704,
            "type" : "VEC3"
        },
        {
            "bufferView" : 2,
            "componentType" : 5126,
            "count" : 1704,
            "type" : "VEC2"
        },
        {
            "bufferView" : 3,
            "componentType" : 5123,
            "count" : 2544,
            "type" : "SCALAR"
        }
    ],
    "bufferViews" : [
        {
            "buffer" : 0,
            "byteLength" : 20448,
            "byteOffset" : 0
        },
        {
            "buffer" : 0,
            "byteLength" : 20448,
            "byteOffset" : 20448
        },
        {
            "buffer" : 0,
            "byteLength" : 13632,
            "byteOffset" : 40896
        },
        {
            "buffer" : 0,
            "byteLength" : 5088,
            "byteOffset" : 54528
        }
    ],
    "buffers" : [
        {
            "byteLength" : 59616,
            "uri" : "data:application/octet-stream;base64,"
        }
    ]
}
