{
    "asset" : {
        "generator" : "Khronos glTF Blender I/O v1.5.17",
        "version" : "2.0"
    },
    "scene" : 0,
    "scenes" : [
        {
            "name" : "Scene",
            "nodes" : [
                0,
                1
            ]
        }
    ],
    "nodes" : [
        {
            "mesh" : 0,
            "name" : "Collider"
        },
        {
            "mesh" : 1,
            "name" : "Model"
        }
    ],
    "materials" : [
        {
            "name" : "Material",
            "pbrMetallicRoughness" : {
                "baseColorFactor" : [
                    0.800000011920929,
                    0.800000011920929,
                    0.800000011920929,
                    1
                ],
                "metallicFactor" : 0.10734463483095169,
                "roughnessFactor" : 0.8672316074371338
            }
        },
        {
            "name" : "Material.001",
            "pbrMetallicRoughness" : {
                "baseColorFactor" : [
                    0.8000000715255737,
                    0,
                    0.001515314681455493,
                    1
                ],
                "metallicFactor" : 0,
                "roughnessFactor" : 0.8966942429542542
            }
        },
        {
            "name" : "Material.003",
            "pbrMetallicRoughness" : {
                "baseColorFactor" : [
                    0,
                    0.0067509920336306095,
                    0.7223604917526245,
                    1
                ],
                "metallicFactor" : 0.7627118825912476,
                "roughnessFactor" : 0.6920903921127319
            }
        }
    ],
    "meshes" : [
        {
            "name" : "terrain",
            "primitives" : [
                {
                    "attributes" : {
                        "POSITION" : 0,
                        "NORMAL" : 1,
                        "TEXCOORD_0" : 2
                    },
                    "indices" : 3
                }
            ]
        },
        {
            "name" : "terrain.003",
            "primitives" : [
                {
                    "attributes" : {
                        "POSITION" : 4,
                        "NORMAL" : 5,
                        "TEXCOORD_0" : 6
                    },
                    "indices" : 7,
                    "material" : 0
                },
                {
                    "attributes" : {
                        "POSITION" : 8,
                        "NORMAL" : 9,
                        "TEXCOORD_0" : 10
                    },
                    "indices" : 11,
                    "material" : 1
                },
                {
                    "attributes" : {
                        "POSITION" : 12,
                        "NORMAL" : 13,
                        "TEXCOORD_0" : 14
                    },
                    "indices" : 15,
                    "material" : 2
                }
            ]
        }
    ],
    "accessors" : [
        {
            "bufferView" : 0,
            "componentType" : 5126,
            "count" : 455,
            "max" : [
                14.914633750915527,
                5.786394119262695,
                19.958454132080078
            ],
            "min" : [
                -14.914633750915527,
                -1.9410542249679565,
                -14.914633750915527
            ],
            "type" : "VEC3"
        },
        {
            "bufferView" : 1,
            "componentType" : 5126,
            "count" : 455,
            "type" : "VEC3"
        },
        {
            "bufferView" : 2,
            "componentType" : 5126,
            "count" : 455,
            "type" : "VEC2"
        },
        {
            "bufferView" : 3,
            "componentType" : 5123,
            "count" : 720,
            "type" : "SCALAR"
        },
        {
            "bufferView" : 4,
            "componentType" : 5126,
            "count" : 247,
            "max" : [
                14.914633750915527,
                0,
                14.914633750915527
            ],
            "min" : [
                -14.914633750915527,
                -1.6855790615081787,
                -14.914633750915527
            ],
            "type" : "VEC3"
        },
        {
            "bufferView" : 5,
            "componentType" : 5126,
            "count" : 247,
            "type" : "VEC3"
        },
        {
            "bufferView" : 6,
            "componentType" : 5126,
            "count" : 247,
            "type" : "VEC2"
        },
        {
            "bufferView" : 7,
            "componentType" : 5123,
            "count" : 396,
            "type" : "SCALAR"
        },
        {
            "bufferView" : 8,
            "componentType" : 5126,
            "count" : 240,
            "max" : [
                14.914633750915527,
                5.786394119262695,
                15.450729370117188
            ],
            "min" : [
                -14.914633750915527,
                -1.9410542249679565,
                -14.914633750915527
            ],
            "type" : "VEC3"
        },
        {
            "bufferView" : 9,
            "componentType" : 5126,
            "count" : 240,
            "type" : "VEC3"
        },
        {
            "bufferView" : 10,
            "componentType" : 5126,
            "count" : 240,
            "type" : "VEC2"
        },
        {
            "bufferView" : 11,
            "componentType" : 5123,
            "count" : 396,
            "type" : "SCALAR"
        },
        {
            "bufferView" : 12,
            "componentType" : 5126,
            "count" : 104,
            "max" : [
                11.577425956726074,
                -0.08407490700483322,
                11.577425956726074
            ],
            "min" : [
                -11.577425956726074,
                -1.9410542249679565,
                -11.577425956726074
            ],
            "type" : "VEC3"
        },
        {
            "bufferView" : 13,
            "componentType" : 5126,
            "count" : 104,
            "type" : "VEC3"
        },
        {
            "bufferView" : 14,
            "componentType" : 5126,
            "count" : 104,
            "type" : "VEC2"
        },
        {
            "bufferView" : 15,
            "componentType" : 5123,
            "count" : 120,
            "type" : "SCALAR"
        }
    ],
    "bufferViews" : [
        {
            "buffer" : 0,
            "byteLength" : 5460,
            "byteOffset" : 0
        },
        {
            "buffer" : 0,
            "byteLength" : 5460,
            "byteOffset" : 5460
        },
        {
            "buffer" : 0,
            "byteLength" : 3640,
            "byteOffset" : 10920
        },
        {
            "buffer" : 0,
            "byteLength" : 1440,
            "byteOffset" : 14560
        },
        {
            "buffer" : 0,
            "byteLength" : 2964,
            "byteOffset" : 16000
        },
        {
            "buffer" : 0,
            "byteLength" : 2964,
            "byteOffset" : 18964
        },
        {
            "buffer" : 0,
            "byteLength" : 1976,
            "byteOffset" : 21928
        },
        {
            "buffer" : 0,
            "byteLength" : 792,
            "byteOffset" : 23904
        },
        {
            "buffer" : 0,
            "byteLength" : 2880,
            "byteOffset" : 24696
        },
        {
            "buffer" : 0,
            "byteLength" : 2880,
            "byteOffset" : 27576
        },
        {
            "buffer" : 0,
            "byteLength" : 1920,
            "byteOffset" : 30456
        },
        {
            "buffer" : 0,
            "byteLength" : 792,
            "byteOffset" : 32376
        },
        {
            "buffer" : 0,
            "byteLength" : 1248,
            "byteOffset" : 33168
        },
        {
            "buffer" : 0,
            "byteLength" : 1248,
            "byteOffset" : 34416
        },
        {
            "buffer" : 0,
            "byteLength" : 832,
            "byteOffset" : 35664
        },
        {
            "buffer" : 0,
            "byteLength" : 240,
            "byteOffset" : 36496
        }
    ],
    "buffers" : [
        {
            "byteLength" : 36736,
            "uri" : "data:application/octet-stream;base64,"
        }
    ]
}
